<?xml version="1.0" standalone="no"?><!DOCTYPE svg PUBLIC "-//W3C//DTD SVG 1.1//EN" "http://www.w3.org/Graphics/SVG/1.1/DTD/svg11.dtd"><svg t="1546424485657" class="icon" style="" viewBox="0 0 1024 1024" version="1.1" xmlns="http://www.w3.org/2000/svg" p-id="2296" xmlns:xlink="http://www.w3.org/1999/xlink" width="40" height="40"><defs><style type="text/css"></style></defs><path d="M460.598613 230.048427l113.042773 0c4.160853 0 7.533227-4.20864 7.533227-9.403733 0-5.19168-3.372373-9.40032-7.533227-9.40032l-113.042773 0c-4.16768 0-7.540053 4.20864-7.540053 9.40032C453.05856 225.839787 456.434347 230.048427 460.598613 230.048427z" p-id="2297" fill="#e6e6e6"></path><path d="M671.819093 254.49472l-309.4016 0c-11.47904 0-20.780373 9.540267-20.780373 21.2992l0 463.609173c0 11.762347 9.301333 21.295787 20.780373 21.295787l309.4016 0c11.472213 0 20.77696-9.53344 20.77696-21.295787L692.596053 275.79392C692.596053 264.034987 683.301547 254.49472 671.819093 254.49472zM587.465387 497.281707l0 22.401707-51.264853 0 0 31.156907 51.264853 0 0 22.541653-51.264853 0 0 44.8-27.999573 0 0-44.8L455.3728 573.381973l0-22.541653 52.834987 0 0-31.156907L455.3728 519.683413l0-22.401707 44.506453 0-54.411947-101.50912 32.02048 0 38.045013 79.11424c2.106027 4.399787 4.498773 10.001067 7.181653 16.800427l0.57344 0c1.921707-5.454507 4.399787-11.29472 7.468373-17.52064l38.188373-78.394027 30.006613 0-55.125333 101.50912L587.465387 497.281707z" p-id="2298" fill="#e6e6e6"></path><path d="M512 10.77248C235.178667 10.77248 10.77248 235.178667 10.77248 512 10.77248 788.821333 235.178667 1013.22752 512 1013.22752c276.814507 0 501.22752-224.406187 501.22752-501.22752C1013.22752 235.178667 788.814507 10.77248 512 10.77248zM738.822827 845.981013c0 24.29952-22.173013 44.00128-49.524053 44.00128L344.937813 889.982293c-27.35104 0-49.524053-19.698347-49.524053-44.00128L295.41376 211.380907c0-24.29952 22.173013-44.004693 49.524053-44.004693l344.367787 0c27.347627 0 49.52064 19.70176 49.52064 44.004693L738.822827 845.981013 738.822827 845.981013z" p-id="2299" fill="#e6e6e6"></path><path d="M517.12 823.59296m-40.758613 0a11.941 11.941 0 1 0 81.517227 0 11.941 11.941 0 1 0-81.517227 0Z" p-id="2300" fill="#e6e6e6"></path></svg>