<?xml version="1.0" standalone="no"?><!DOCTYPE svg PUBLIC "-//W3C//DTD SVG 1.1//EN" "http://www.w3.org/Graphics/SVG/1.1/DTD/svg11.dtd"><svg t="1546424430740" class="icon" style="" viewBox="0 0 1024 1024" version="1.1" xmlns="http://www.w3.org/2000/svg" p-id="1928" xmlns:xlink="http://www.w3.org/1999/xlink" width="40" height="40"><defs><style type="text/css"></style></defs><path d="M348.16 143.36h348.16c22.528 0 40.96 18.432 40.96 40.96v491.52c0 22.528-18.432 40.96-40.96 40.96H348.16c-22.528 0-40.96-18.432-40.96-40.96V184.32c0-22.528 18.432-40.96 40.96-40.96z" fill="#e6e6e6" p-id="1929"></path><path d="M522.24 808.96m-51.2 0a51.2 51.2 0 1 0 102.4 0 51.2 51.2 0 1 0-102.4 0Z" fill="#e6e6e6" p-id="1930"></path><path d="M440.32 389.12c-16.384 0-30.72-14.336-30.72-30.72s14.336-30.72 30.72-30.72 30.72 14.336 30.72 30.72-14.336 30.72-30.72 30.72z m143.36 0c-16.384 0-30.72-14.336-30.72-30.72s14.336-30.72 30.72-30.72 30.72 14.336 30.72 30.72-14.336 30.72-30.72 30.72zM450.56 471.04c0-12.288 8.192-20.48 20.48-20.48s20.48 8.192 20.48 20.48 8.192 20.48 20.48 20.48 20.48-8.192 20.48-20.48 8.192-20.48 20.48-20.48 20.48 8.192 20.48 20.48c0 34.816-26.624 61.44-61.44 61.44s-61.44-26.624-61.44-61.44z" fill="#e6e6e6" p-id="1931"></path><path d="M763.904 0H280.576C217.088 0 163.84 55.296 163.84 122.88v710.656c0 67.584 51.2 122.88 116.736 122.88h258.048l86.016 63.488 38.912-45.056-38.912-30.72-67.584-49.152H280.576c-30.72 0-55.296-26.624-55.296-61.44V122.88c0-34.816 24.576-61.44 55.296-61.44h481.28c30.72 0 55.296 26.624 55.296 61.44v710.656c0 34.816-24.576 61.44-55.296 61.44h-67.584v61.44h69.632c63.488 0 116.736-55.296 116.736-122.88V122.88c0-67.584-53.248-122.88-116.736-122.88z" fill="#e6e6e6" p-id="1932"></path></svg>