<?xml version="1.0" standalone="no"?><!DOCTYPE svg PUBLIC "-//W3C//DTD SVG 1.1//EN" "http://www.w3.org/Graphics/SVG/1.1/DTD/svg11.dtd"><svg t="1547011975877" class="icon" style="" viewBox="0 0 1024 1024" version="1.1" xmlns="http://www.w3.org/2000/svg" p-id="2821" xmlns:xlink="http://www.w3.org/1999/xlink" width="40" height="40"><defs><style type="text/css"></style></defs><path d="M511.63349 362.326247c-83.168729 0-150.59552 67.627522-150.59552 151.055904 0 83.426385 67.42679 151.053906 150.59552 151.053906 83.170727 0 150.593522-67.626523 150.593522-151.053906C662.228011 429.954768 594.804217 362.326247 511.63349 362.326247zM511.471707 604.20464c-50.161889 0-90.823488-40.664595-90.823488-90.821491 0-50.16089 40.663597-90.822489 90.823488-90.822489 50.157894 0 90.820492 40.663597 90.820492 90.822489C602.292199 563.540045 561.6306 604.20464 511.471707 604.20464zM993.831362 422.556665l-60.250392-0.068908-60.234413-120.399918 45.348329-45.34034c0 0 28.812452-30.698928-45.539074-105.046459-74.354522-74.353523-104.834743-46.696525-104.834743-46.696525l-46.082347 45.979484L602.232279 91.271888l0.233687-61.154182c0 0-1.116506-30.117706-90.527884-30.117706s-90.521892 30.117706-90.521892 30.117706l0.026964 60.21444-120.48081 60.396196-46.182213-45.650924c0 0-30.973561-28.054466-104.381349 45.353322-73.410784 73.41378-45.522096 106.007174-45.522096 106.007174l45.371298 45.943533-60.072629 119.080683-59.916838 0.015979c0 0-30.220568 0.142809-30.220568 91.437666 0 91.290863 30.011847 90.35112 30.011847 90.35112l60.248394-0.282622 60.43814 89.895729-44.250797 74.679088c0 0-29.061119 33.050782 44.350664 106.461566 73.41378 73.409786 105.416964 44.229825 105.416964 44.229825l44.147935-44.639278 120.736468 60.950455 0.445404 59.301661c0 0 0.006991 30.13668 90.354116 30.13668 90.353117 0 90.182346-30.102726 90.182346-30.102726l0.131824-59.338611 90.173358-60.962439 75.330216 45.103656c0 0 31.112375 28.907325 105.464899-45.443202 74.353523-74.351526 45.074695-105.514833 45.074695-105.514833l-45.127624-73.938079 60.426156-91.331808 60.26637 0.626162c0 0 30.102726-0.76997 30.102726-90.182346S993.831362 422.556665 993.831362 422.556665zM903.466261 542.085749 798.160149 708.570011l60.424159 89.845796-60.114573 61.100255-91.791193-61.347923L542.057786 904.433966l0 59.29467-60.233414 0 0-59.29467L285.592908 799.495363l-58.473768 58.462783-61.796323-59.097933 60.519032-90.176354L120.418893 542.08475 60.186477 542.08475l0-59.99773 59.289677-0.068908 106.659302-195.29272-60.799657-60.892532 59.675161-58.18116 60.887539 58.377897L481.826369 121.384601 481.826369 60.210445l60.232416 0 0 61.175154 195.757098 105.405978 60.093601-60.130552 59.136881 59.576293-43.934221 75.85052 90.357112 180.831068 60.230418 0.053928 0.002996 59.111915L903.466261 542.085749 903.466261 542.085749z" p-id="2822" fill="#ffffff"></path></svg>